<svg id="Layer_1" enable-background="new 0 0 512 512" height="512" viewBox="0 0 512 512" width="512" xmlns="http://www.w3.org/2000/svg"><circle cx="256" cy="256" fill="#e04955" r="256"/><path d="m274.028 511.372c-5.954.422-11.971.628-18.028.628-141.382 0-256-114.618-256-256s114.618-256 256-256c6.057 0 12.074.206 18.028.628-132.965 9.252-237.972 120.047-237.972 255.372s105.007 246.12 237.972 255.372z" fill="#d80a61"/><ellipse cx="256" cy="256" fill="#fff5f4" rx="211.66" ry="211.66" transform="matrix(.707 -.707 .707 .707 -106.039 256)"/><path d="m142.392 405.665c36.685 36.685 83.599 57.062 131.637 61.131-60.039 5.089-121.85-15.288-167.693-61.131-82.528-82.528-82.528-216.802 0-299.329 45.843-45.843 107.654-66.22 167.693-61.131-48.037 4.069-94.952 24.446-131.637 61.131-82.528 82.527-82.528 216.801 0 299.329z" fill="#eee6e3"/><path d="m364.811 315.721h-217.622c-11.804 0-21.462-9.658-21.462-21.462 0-11.804 9.658-21.462 21.462-21.462h217.623c11.804 0 21.462 9.658 21.462 21.462 0 11.804-9.658 21.462-21.463 21.462z" fill="#c0694e"/><path d="m114.649 315.721h282.703c3.116 0 5.642 2.526 5.642 5.642v.922c0 37.941-30.757 68.698-68.698 68.698h-156.59c-37.941 0-68.698-30.757-68.698-68.698v-.922c-.001-3.116 2.525-5.642 5.641-5.642z" fill="#fdc202"/><path d="m365.218 272.796h-218.436c-11.581 0-21.056-9.475-21.056-21.056 0-11.581 9.475-21.056 21.056-21.056h218.436c11.581 0 21.056 9.475 21.056 21.056 0 11.581-9.475 21.056-21.056 21.056z" fill="#e5646e"/><path d="m213.763 390.985h-36.056c-37.942 0-68.703-30.761-68.703-68.703v-.917c0-3.121 2.534-5.645 5.645-5.645h36.056c-3.111 0-5.645 2.524-5.645 5.645v.917c0 37.941 30.761 68.703 68.703 68.703z" fill="#f0a70a"/><path d="m183.249 315.72h-36.056c-11.806 0-21.469-9.653-21.469-21.459 0-5.903 2.411-11.27 6.305-15.164s9.261-6.305 15.164-6.305h36.056c-5.903 0-11.27 2.411-15.164 6.305s-6.305 9.261-6.305 15.164c0 11.806 9.663 21.459 21.469 21.459z" fill="#ae583e"/><path d="m182.837 272.792h-36.057c-11.579 0-21.057-9.467-21.057-21.047v-.01c0-11.579 9.478-21.047 21.057-21.047h36.056c-11.579 0-21.057 9.467-21.057 21.047v.01c.001 11.58 9.478 21.047 21.058 21.047z" fill="#e04955"/><path d="m392.518 225.365c2.399 3.191.254 7.429-4.195 8.167-14.479 2.402-17.674 9.861-37.514 9.861-23.648 0-23.648-10.596-47.296-10.596-23.647 0-23.647 10.596-47.294 10.596-23.646 0-23.646-10.596-47.293-10.596-23.645 0-23.645 10.596-47.291 10.596-19.973 0-23.076-7.56-37.807-9.909-4.406-.702-6.7-4.761-4.489-7.996l18.032-26.378 118.629-12.476 116.776 12.475z" fill="#82cd64"/><path d="m388.327 233.532c-14.484 2.4-17.678 9.859-37.519 9.859-23.643 0-23.643-10.59-47.296-10.59-23.643 0-23.643 10.59-47.296 10.59-23.643 0-23.643-10.59-47.285-10.59-23.653 0-23.653 10.59-47.296 10.59-19.975 0-23.076-7.562-37.808-9.91-4.409-.701-6.696-4.759-4.492-7.994l18.038-26.373 25.94-2.73-7.922 11.59c-2.205 3.235.082 7.294 4.492 7.994 14.732 2.349 17.832 9.91 37.808 9.91 23.643 0 23.643-10.59 47.296-10.59 23.643 0 23.643 10.59 47.285 10.59 23.653 0 23.653-10.59 47.296-10.59 23.653 0 23.653 10.59 47.296 10.59 2.132 0 4.069-.083 5.851-.237 2.081 3.162-.072 7.17-4.388 7.891z" fill="#6dc54a"/><path d="m382.159 199.109h-252.318c-14.607 0-24.729-12.568-19.387-24.193 22.816-49.656 79.38-84.805 145.547-84.805s122.731 35.149 145.547 84.805c5.34 11.626-4.782 24.193-19.389 24.193z" fill="#fdc202"/><g fill="#f0a70a"><circle cx="256" cy="161.996" r="9.014"/><circle cx="345.626" cy="161.996" r="9.014"/><circle cx="216.596" cy="131.091" r="9.014"/><circle cx="295.404" cy="134.181" r="9.014"/><path d="m146.512 174.914c-5.347 11.631 4.78 24.199 19.388 24.199h-36.056c-14.608 0-24.735-12.568-19.388-24.199 22.819-49.654 79.375-84.804 145.544-84.804 6.099 0 12.115.299 18.028.876-58.277 5.727-106.799 38.848-127.516 83.928z"/></g><path d="m390.696 422.288-299.375-299.424 3.971-26.542 27.411-5.175 298.555 298.433.429 29.704z" fill="#e04955"/></svg>