<svg id="Capa_1" enable-background="new 0 0 512 512" height="512" viewBox="0 0 512 512" width="512" xmlns="http://www.w3.org/2000/svg"><g><g><path d="m40 211h432v60h-432z" fill="#ff7b79"/><path d="m40 331h432v61.1h-432z" fill="#ff7b79"/><path d="m498.69 176.45c-16.12-82.88-89.1-145.45-176.69-145.45h-132c-87.59 0-160.57 62.57-176.69 145.45-3.5 18.03 11.36 34.55 29.74 34.55h425.9c18.38 0 33.24-16.52 29.74-34.55z" fill="#ffda8f"/><path d="m472 271h-432c-16.57 0-30 13.43-30 30s13.43 30 30 30h432c16.57 0 30-13.43 30-30s-13.43-30-30-30z" fill="#a7e8a6"/><path d="m490.8 434.51c-15.34 27.72-44.88 46.49-78.8 46.49h-312c-33.92 0-63.46-18.77-78.8-46.49-10.809-19.523 4.596-43.51 26.91-43.51h415.78c22.305 0 37.724 23.979 26.91 43.51z" fill="#ffda8f"/><path d="m286 211c-4.898 4.898-84.637 84.637-90 90-5.368-5.368-85.107-85.107-90-90z" fill="#fff5f5"/></g><g><circle cx="406" cy="121" r="10"/><circle cx="346" cy="91" r="10"/><circle cx="346" cy="151" r="10"/><circle cx="286" cy="121" r="10"/><circle cx="226" cy="91" r="10"/><circle cx="196" cy="151" r="10"/><circle cx="136" cy="91" r="10"/><circle cx="106" cy="151" r="10"/><path d="m482 262.266v-43.417c18.446-6.258 30.249-25.024 26.507-44.307-17.305-88.969-95.742-153.542-186.507-153.542h-132c-90.765 0-169.202 64.573-186.507 153.544-3.739 19.264 8.056 38.044 26.507 44.304v43.417c-17.233 4.453-30 20.131-30 38.735s12.767 34.282 30 38.734v45.591c-19.878 10.07-28.444 34.352-17.549 54.026 17.629 31.858 51.176 51.649 87.549 51.649h111c5.523 0 10-4.477 10-10s-4.477-10-10-10h-111c-29.1 0-55.942-15.837-70.051-41.334-7.078-12.783 3.373-28.666 18.161-28.666h415.78c14.746 0 25.266 15.837 18.16 28.668-14.108 25.495-40.949 41.332-70.05 41.332h-111c-5.522 0-10 4.477-10 10s4.478 10 10 10h111c36.373 0 69.92-19.791 87.548-51.646 10.868-19.625 2.383-43.93-17.548-54.027v-45.593c17.233-4.452 30-20.13 30-38.734s-12.767-34.282-30-38.734zm-231.857-1.266 40-40h171.857v40zm-148.286-40 40 40h-91.857v-40zm28.285 0h131.715l-65.857 65.858zm-107.016-42.641c15.48-79.591 85.661-137.359 166.874-137.359h132c81.213 0 151.394 57.768 166.874 137.356 2.285 11.778-7.727 22.644-19.924 22.644h-425.9c-12.211 0-22.207-10.881-19.924-22.641zm438.874 162.641v40h-412v-40zm10-20h-432c-11.028 0-20-8.972-20-20s8.972-20 20-20h121.857l27.071 27.071c3.906 3.905 10.237 3.905 14.143 0l27.072-27.071h241.857c11.028 0 20 8.972 20 20s-8.972 20-20 20z"/><circle cx="256" cy="481" r="10"/></g></g></svg>